{"title":"Pacific Rim 2013 CAM READ NFO XviD-Robo29 [PublicHash]","uid":8711245,"size":1326072929,"categoryP":"video","categoryS":"movies","magnet":"?xt=urn:btih:c8c5803e5f9a659e9759e62be16f9c61d1be6e73&amp;dn=Pacific+Rim+2013+CAM+READ+NFO+XviD-Robo29+%5BPublicHash%5D&amp;tr=udp%3A%2F%2Ftracker.openbittorrent.com%3A80&amp;tr=udp%3A%2F%2Fopen.demonii.com%3A1337&amp;tr=udp%3A%2F%2Ftracker.coppersurfer.tk%3A6969&amp;tr=udp%3A%2F%2Fexodus.desync.com%3A6969","seeders":0,"leechers":1,"uploader":"R0thschild","files":5,"time":1374241143,"description":"              ***********************************************\n\n                PublicHash - Largest Bittorrent Community\n      \n                         &lt;a href=&quot; http://publichash.com/&quot; rel=&quot;nofollow&quot; target=&quot;_NEW&quot;&gt; http://publichash.com/&lt;/a&gt;\n\n          Crystal Clean files - Fast Speed! No Virus! No Fake! Enjoy!\n    \n              ***********************************************\nPacific Rim (2013)\n132 min  -  Action | Adventure | Fantasy  -  12 July 2013 (USA)\nIMDB rating: 8.0\n\nAs a war between humankind and monstrous sea creatures wages on, a former pilot and a trainee are paired up to drive a seemingly obsolete special weapon in a desperate effort to save the world from the apocalypse.\n\nDirector: Guillermo del Toro\nWriters: Travis Beacham (screenplay), Guillermo del Toro (screenplay)\n\nGallery: &lt;a href=&quot;\nhttp://imgsure.com/?g=959168&quot; rel=&quot;nofollow&quot; target=&quot;_NEW&quot;&gt;\nhttp://imgsure.com/?g=959168&lt;/a&gt;\n\nGeneral\nComplete name: Pacific Rim 2013 CAM READ NFO XviD-Robo29.avi\nFormat: AVI\nFormat/Info: Audio Video Interleave\nFile size: 1.21 GiB\nDuration: 2h 2mn\nOverall bit rate: 1 413 Kbps\nWriting application: VirtualDubMod 1.5.10.2 (build 2542/release)\nWriting library: VirtualDubMod build 2542/release\n\nVideo\nID: 0\nFormat: MPEG-4 Visual\nFormat profile: Advanced Simple@L5\nFormat settings, BVOP: 2\nFormat settings, QPel: No\nFormat settings, GMC: No warppoints\nFormat settings, Matrix: Default (H.263)\nCodec ID: XVID\nCodec ID/Hint: XviD\nDuration: 2h 2mn\nBit rate: 1 274 Kbps\nWidth: 720 pixels\nHeight: 384 pixels\nDisplay aspect ratio: 1.85:1\nFrame rate: 29.333 fps\nColor space: YUV\nChroma subsampling: 4:2:0\nBit depth: 8 bits\nScan type: Progressive\nCompression mode: Lossy\nBits/(Pixel*Frame): 0.157\nStream size: 1.09 GiB (90%)\nWriting library: XviD 64\n\nAudio\nID: 1\nFormat: MPEG Audio\nFormat version: Version 1\nFormat profile: Layer 3\nCodec ID: 55\nCodec ID/Hint: MP3\nDuration: 2h 2mn\nBit rate mode: Constant\nBit rate: 128 Kbps\nChannel(s): 2 channels\nSampling rate: 48.0 KHz\nCompression mode: Lossy\nStream size: 112 MiB (9%)\nAlignment: Aligned on interleaves\nInterleave, duration: 34 ms (1.00 video frame)\nInterleave, preload duration: 504 ms\nWriting library: LAME3.99r\nEncoding settings: -m s -V 4 -q 3 -lowpass 17 -b 128\n\n\nIMDB: http://www.imdb.com/title/tt1663662/","torrent":{"xt":"urn:btih:c8c5803e5f9a659e9759e62be16f9c61d1be6e73","amp;dn":"Pacific+Rim+2013+CAM+READ+NFO+XviD-Robo29+%5BPublicHash%5D","amp;tr":["udp%3A%2F%2Ftracker.openbittorrent.com%3A80","udp%3A%2F%2Fopen.demonii.com%3A1337","udp%3A%2F%2Ftracker.coppersurfer.tk%3A6969","udp%3A%2F%2Fexodus.desync.com%3A6969"],"infoHash":"c8c5803e5f9a659e9759e62be16f9c61d1be6e73","infoHashBuffer":{"type":"Buffer","data":[200,197,128,62,95,154,101,158,151,89,230,43,225,111,156,97,209,190,110,115]},"announce":[],"urlList":[]}}